<?xml version="1.0" encoding="utf-8"?>
<!-- Generator: Adobe Illustrator 18.0.0, SVG Export Plug-In . SVG Version: 6.00 Build 0)  -->
<!DOCTYPE svg PUBLIC "-//W3C//DTD SVG 1.1//EN" "http://www.w3.org/Graphics/SVG/1.1/DTD/svg11.dtd">
<svg version="1.1" id="Layer_1" xmlns="http://www.w3.org/2000/svg" xmlns:xlink="http://www.w3.org/1999/xlink" x="0px" y="0px"
	 viewBox="0 0 764.8 306.8" enable-background="new 0 0 764.8 306.8" xml:space="preserve">
<g>
	<g>
		<path fill-rule="evenodd" clip-rule="evenodd" fill="#1B4172" d="M49.6,181c-3.5-12-5.1-25.7-3.4-38.1
			c4.2-31.3,26.6-44.5,57.4-35.6c5.7,1.6,11.6,6.2,18.1,8.7c-0.6-8-2.2-22.2-3-30.8c-6.2-2.4-24.5-8.6-52.5-3.9
			c-36.7,6-64.4,35.6-66.1,71.7c-1.9,40.2,20.7,71.7,58.7,81.2c23.1,5.8,45.9,3.5,68.6-2.3c0.9-0.2,2.9-0.9,4.8-1.7l11-31.7
			c-11.3,5.7-23.2,10.3-33.3,12.7C81.1,217.9,57.1,206.5,49.6,181z M255,192c-0.1-12.4-0.2-24.8-1.2-37.1c-1.1-12.6-8.1-21.4-20-26
			c-15.7-6-34.7-5.1-51.4-0.4c-0.6,1.4-10.7,23.3-11.3,24.7c4.2-1.8,9.4-3.7,12.7-4.5c7.1-1.8,13.7-2.9,20.3-1.8
			c4.8,0.8,9.3,4.6,9.3,8.2c0,5.6-3.7,7.5-6.9,9.3c-4.7,2.6-10.4,3.2-15.7,4.7c-7.4,2.1-15,3.7-22,6.7
			c-10.2,4.4-17.3,12.3-18.2,23.8c-1,12.6,4.3,23.8,14.8,30.9c9.9,6.8,23,6.9,35.9,5l9.2-20.1c-14.2-0.3-18-7.4-16.7-15.2
			c0.7-4.7,4.5-8.7,9.2-11.1c4.2-2.2,8-3.5,10.9-5.3c-0.1,3.1,0,13.7,0,18.1c0,23,15.6,38.6,49,33.9l9.1-20.1
			C256.5,215.5,255.2,209.9,255,192z M371.4,84.3c8.2,7.4,8.7,19.8,8.9,29.5c0.6,29.7,0,59.4,0.3,89.1c0.2,26.2,0.6,53.2-17.4,77.9
			c6.1-1.3,9.3-1.8,12.5-2.7c36-9.6,46.8-23.7,46.8-61c0-32.5,0-64.9,0-97.4c0-12.2-1.9-25.4,8.4-35.5
			C411.3,84.3,387.5,84.3,371.4,84.3z M523.5,214.7c-16.1,2.3-29.5-4-34.8-15.9c-3.2-6.6-3.4-14.9-3.4-18c2.2,0,64,0,68.8,0
			c0-3.6,0.3-6.3,0-9c-3.6-32.4-26.5-50.4-59.5-47c-26.7,2.7-47.4,23.1-49.7,50.6c-2.6,29.4,12.3,51.1,39.9,58.9
			c20.1,5.7,39.4,2.9,58.7-3.4c1.6-0.5,2.9-1,4.1-1.7c2.1-6.1,6.2-19,8.1-26.6c-5.5,2.7-11.1,6.1-16.2,7.9
			C534.2,212.3,528.9,213.9,523.5,214.7z M503.4,145.6c7.5,0.9,11.1,5.7,11,15.4c-8.9,0-18.9,0-28.3,0
			C488.5,148.9,494.7,144.5,503.4,145.6z M618.7,196c0-11.6-0.1-44-0.1-46c3.9,0,11.5-1.9,24.6,6.3c0-7.6-0.1-19-0.1-27.9
			c-15.2,0-17.1,0-24.3,0c0-8.4,0-23.8,0-32.1c-2.9,0-11.1-0.1-15.1-0.1c-3.1,16.5-12.2,29.2-27.1,35c-4.5,1.7-8.3,2.6-10.9,3
			c0,2.8,0,13.2,0,16.2c4.1,0,9.8,0,13.3,0c0,18.6-0.2,36.8,0.1,54.9c0,19.6,11.5,31.4,30.8,32.3c3.3,0.2,6.6,0.1,9.9-0.1
			c7.1-0.3,12.5-3.2,14.6-4.1c1-2,8.5-15.5,9.5-17.6C623.7,217.5,618.7,210.2,618.7,196z M326.7,138.5c-0.9-3.4-1.3-7.6-1.3-12.1
			c-12.1,2.4-29,2.1-45.6,2.1c7.1,7.1,7.3,16.4,7.3,24.5c0,3.3,0,58.9,0,62.9c0,5.7-2.7,14.5-7.8,18c2.2,0,38.5,0,55.2,0
			c-3.9-3-7.1-9.2-7.1-13c0-4.7,0-46.6,0-50.8c0-8.4,6.2-15.3,14.6-16.4c5.3-0.7,12-0.2,17.4,1.5v-27.7
			C344.1,124,334.1,128.7,326.7,138.5z"/>
	</g>
</g>
<g>
	<g>
		<path fill-rule="evenodd" clip-rule="evenodd" fill="#ffbb33" d="M353.3,0C231.5,0,122.1,20.5,46.8,53.1
			c70.7-22.7,162-36.5,261.8-36.5C533,16.6,715,86,715,171.7c0,58-83.3,108.5-206.7,135.1c150.4-23.7,256.4-80.8,256.4-147.6
			C764.8,71.3,580.6,0,353.3,0z"/>
	</g>
</g>
</svg>
