<svg height="21" viewBox="0 0 145 21" xmlns="http://www.w3.org/2000/svg">
<style>
#header_logo svg { fill: currentColor; }
#header_logo:not(.mono) g.logo_image > .logo_1 { fill: #00C2FF }
#header_logo:not(.mono) g.logo_image > .logo_2 { fill: #0DAD36 }
#header_logo g.logo_suffix > * { display: none }
#header_logo.domain.com g.logo_suffix > .com { display: inherit }
#header_logo.domain.de g.logo_suffix > .de { display: inherit }
#header_logo.domain.es g.logo_suffix > .es { display: inherit }
#header_logo.domain.fr g.logo_suffix > .fr { display: inherit }
#header_logo.domain.it g.logo_suffix > .it { display: inherit }
#header_logo.domain.pl g.logo_suffix > .pl { display: inherit }
#header_logo.domain.pt g.logo_suffix > .pt { display: inherit }
#header_logo.domain.ro g.logo_suffix > .ro { display: inherit }
</style>
<g class="logo_image">
<path class="logo_1" d="M6.1819 11.8125C7.77381 4.18277 13.8409 1.3125 13.8409 1.3125C13.8409 1.3125 4.3149 4.58409 1.13454 5.66075C0.902131 5.73904 0.682231 5.86059 0.496393 6.03818C-0.165464 6.67025 -0.165464 7.6954 0.496393 8.32747C0.569262 8.39711 0.648168 8.45561 0.72966 8.50959L6.1819 11.8125Z"></path>
<path class="logo_2" d="M15.186 19.9657V19.9657L21.0096 2.19536L21.0053 2.1899C21.1908 1.61105 21.0758 0.943988 20.6496 0.481499C19.9121 -0.318721 19 0.119825 18.9984 0.120665C10.2799 3.66474 8.54129 16.0066 12.6987 20.5164C13.2929 21.1612 14.2561 21.1612 14.8503 20.5164C15.0002 20.3543 15.1117 20.1661 15.186 19.9657"></path>
</g>
<g class="logo_name">
<path d="M29.8566 2.625H27.2422V18.4844H29.8566V2.625Z"></path>
<path d="M34.7103 12.6219C34.7103 9.90937 36.1603 8.575 37.83 8.575C39.4997 8.575 40.9497 9.90937 40.9497 12.6219C40.9497 15.3344 39.4997 16.6469 37.83 16.6469C36.1603 16.6469 34.7103 15.3344 34.7103 12.6219ZM37.83 6.45313C34.952 6.45313 32.0081 8.37812 32.0081 12.6219C32.0081 16.8875 34.952 18.7688 37.83 18.7688C40.7081 18.7688 43.652 16.8875 43.652 12.6219C43.652 8.37812 40.7081 6.45313 37.83 6.45313Z"></path>
<path d="M50.9164 6.45313C47.3793 6.45313 45.1164 9.12187 45.1164 12.6219C45.1164 16.1219 47.3793 18.7688 50.8066 18.7688C53.3331 18.7688 55.7717 17.2156 56.299 14.4594H53.7505C53.399 16.0344 52.1467 16.6031 50.8505 16.6031C49.3126 16.6031 47.8187 15.4 47.8187 12.6C47.8187 9.82187 49.2687 8.61875 50.9164 8.61875C52.3445 8.61875 53.421 9.49375 53.6626 10.7406H56.2111C55.7498 8.1375 53.5088 6.45313 50.9164 6.45313Z"></path>
<path d="M65.5388 13.8469C65.5388 15.8594 64.3964 16.8219 62.463 16.8219C61.1449 16.8219 60.288 16.2094 60.288 15.1813C60.288 13.8469 61.804 13.3 65.5388 12.95V13.8469ZM61.8918 18.7688C63.6494 18.7688 65.0115 18.1781 65.7805 16.8875C65.8464 17.6969 65.9123 17.9812 66.0002 18.4844H68.3949C68.1532 17.5 68.0433 15.9469 68.0433 14.4594C68.0433 13.3875 68.0873 11.9875 68.0873 11.4187C68.1532 7.65625 65.9343 6.36563 63.1002 6.36563C60.2441 6.36563 58.2449 8.02812 58.0691 10.4125H60.6396C60.7055 8.99062 61.6941 8.29062 63.0123 8.29062C64.3305 8.29062 65.4729 8.90313 65.4729 10.9156V11.1344C61.1668 11.5938 57.5199 12.2937 57.5199 15.2469C57.5199 17.3906 59.3214 18.7688 61.8918 18.7688Z"></path>
<path d="M73.3454 2.625H70.731V18.4844H73.3454V2.625Z"></path>
<path d="M82.7469 6.7375C82.5492 6.71562 82.2636 6.69375 82.0659 6.69375C80.6378 6.71562 79.4954 7.50312 78.8583 8.81562V6.71562H76.2878V18.4844H78.9022V12.3156C78.9022 9.95313 79.8469 9.29688 81.4946 9.29688C81.8901 9.29688 82.3075 9.31875 82.7469 9.3625V6.7375Z"></path>
<path d="M94.8175 13.3438C95.0592 9.40625 92.7744 6.45313 89.1494 6.45313C85.788 6.45313 83.3494 8.96875 83.3494 12.5125C83.3494 15.9031 85.5244 18.7688 89.3251 18.7688C92.3569 18.7688 94.1585 16.8438 94.6857 14.9625H92.1153C91.6539 16.0781 90.5994 16.6031 89.2153 16.6031C87.7213 16.6031 86.1835 15.5313 86.0077 13.3438H94.8175ZM89.1494 8.4875C90.6872 8.4875 92.0933 9.60312 92.1592 11.4406H86.0077C86.2494 9.23125 87.9191 8.4875 89.1494 8.4875Z"></path>
<path d="M99.5846 6.71562H96.9702V18.4844H99.5846V12.2281C99.5846 10.1063 100.31 8.575 102.331 8.575C104.352 8.575 104.572 10.1281 104.572 11.725V18.4844H107.186V11.0906C107.186 8.29062 106.022 6.45313 103.166 6.45313C101.496 6.45313 100.266 7.13125 99.5846 8.35625V6.71562Z"></path>
<path d="M110.281 6.71562H108.523V8.59688H110.281V15.4C110.281 17.8063 110.786 18.4844 113.313 18.4844H115.246V16.4938H114.301C113.181 16.4938 112.895 16.2094 112.895 15.0062V8.59688H115.268V6.71562H112.895V3.60938H110.281V6.71562Z"></path>
</g>
<g class="logo_suffix">
<g class="com">
<path d="M117.884 18.4844V17.0564H116.45V18.4844H117.884Z"></path>
<path d="M124.309 15.9854C124.056 17.0249 123.318 17.4239 122.411 17.4239C121.314 17.4239 120.418 16.4579 120.418 14.6414C120.418 12.8774 121.314 11.9324 122.463 11.9324C123.307 11.9324 124.024 12.2789 124.309 13.3394H125.743C125.49 11.7539 124.267 10.7354 122.474 10.7354C120.249 10.7354 118.857 12.2369 118.857 14.6414C118.857 17.0774 120.154 18.6209 122.432 18.6209C124.256 18.6209 125.543 17.5289 125.743 15.9854H124.309Z"></path>
<path d="M128.67 14.6729C128.67 12.8879 129.661 11.9324 130.853 11.9324C132.045 11.9324 133.036 12.8879 133.036 14.6729C133.036 16.4684 132.045 17.4239 130.853 17.4239C129.661 17.4239 128.67 16.4684 128.67 14.6729ZM134.597 14.6729C134.597 12.3104 133.131 10.7354 130.853 10.7354C128.575 10.7354 127.109 12.3104 127.109 14.6729C127.109 17.0354 128.575 18.6209 130.853 18.6209C133.131 18.6209 134.597 17.0354 134.597 14.6729Z"></path>
<path d="M141.085 18.4844L142.962 12.7619V18.4844H144.364V10.8719H142.15L140.346 16.8044L138.49 10.8719H136.297V18.4844H137.699V12.7619L139.587 18.4844H141.085Z"></path>
</g>
<g class="de">
<path d="M117.884 18.4844V17.0564H116.45V18.4844H117.884Z"></path>
<path d="M124.356 14.801C124.356 17.2055 122.764 17.5415 121.184 17.5415H120.444V12.071H121.184C122.764 12.071 124.356 12.3965 124.356 14.801ZM119 11V18.6125H121.252C123.856 18.6125 125.858 17.7725 125.858 14.801C125.858 11.8295 123.856 11 121.252 11H119Z"></path>
<path d="M127.269 18.6125H133.103V17.489H128.713V15.2525H132.864V14.15H128.713V12.113H133.103V11H127.269V18.6125Z"></path>
</g>
<g class="pl">
<path d="M117.884 18.4844V17.0564H116.45V18.4844H117.884Z"></path>
<path d="M119 10.7002V18.5752H120.348V15.523H121.756C123.826 15.523 125.351 15.0885 125.351 13.1224C125.351 11.0586 123.743 10.7002 121.756 10.7002H119ZM121.803 11.7212C122.974 11.7212 123.956 11.8516 123.956 13.1333C123.956 14.3499 123.021 14.4802 121.839 14.4802H120.348V11.7212H121.803Z"></path>
<path d="M127.844 10.7002H126.496V18.5752H132.268V17.5216H127.844V10.7002Z"></path>
</g>
<g class="fr">
<path d="M117.884 18.4844V17.0564H116.45V18.4844H117.884Z"></path>
<path d="M127.33 18.6213H125.953V11H129.622C130.386 11 130.988 11.2075 131.427 11.6224C131.865 12.03 132.085 12.5868 132.085 13.2929C132.085 13.8389 131.943 14.2938 131.658 14.6578C131.382 15.0144 130.971 15.2656 130.427 15.4112L132.268 18.6213H130.732L129.025 15.5422H127.33V18.6213ZM129.525 14.5049C129.874 14.5049 130.146 14.4248 130.342 14.2647C130.537 14.0973 130.634 13.8607 130.634 13.555V13.0309C130.634 12.7252 130.537 12.4922 130.342 12.3321C130.146 12.1647 129.874 12.081 129.525 12.081H127.33V14.5049H129.525Z"></path>
<path d="M119 18.6213V11H124.315V12.0919H120.378V14.2101H123.877V15.302H120.378V18.6213H119Z"></path>
</g>
<g class="es">
<path d="M117.884 18.4844V17.0564H116.45V18.4844H117.884Z"></path>
<path d="M119 18.6264V11.1343H124.301V12.2297H120.312V14.2345H124.084V15.3195H120.312V17.5206H124.301V18.6264H119Z"></path>
<path d="M128.148 15.4022L127.238 15.2265C126.05 14.9785 125.079 14.3792 125.079 13.1081C125.079 11.713 126.536 11 127.91 11C129.398 11 130.545 11.6717 130.845 13.2321H129.574C129.357 12.3331 128.582 12.0747 127.838 12.0747C127.259 12.0747 126.401 12.3331 126.401 13.0668C126.401 13.6455 126.866 13.9348 127.517 14.0588L128.437 14.2345C129.75 14.4825 131 14.9785 131 16.4769C131 17.996 129.502 18.7607 128.024 18.7607C126.236 18.7607 125.037 17.7997 124.872 16.1462H126.164C126.401 17.1796 127.052 17.686 128.086 17.686C128.975 17.686 129.688 17.283 129.688 16.5596C129.688 15.7846 128.861 15.5366 128.148 15.4022Z"></path>
</g>
<g class="it">
<path d="M117.884 18.4844V17.0564H116.45V18.4844H117.884Z"></path>
<path d="M120.321 10.5962V18.5001H119.032V10.5962H120.321Z"></path>
<path d="M123.699 18.493V11.7566H121.191V10.603H127.604V11.7566H125.096V18.493H123.699Z"></path>
</g>
<g class="pt">
<path d="M117.884 18.4844V17.0564H116.45V18.4844H117.884Z"></path>
<path d="M127.699 18.4901V11.7537H125.191V10.6001H131.604V11.7537H129.096V18.4901H127.699Z"></path>
<path d="M119 10.6001H121.629C123.378 10.6001 125.017 10.8722 125.017 13.0814C125.017 15.0729 123.532 15.5082 121.651 15.5082H120.397V18.4901H119V10.6001ZM121.629 11.7101H120.397V14.3764H121.695C122.751 14.3764 123.565 14.2241 123.565 13.0922C123.565 11.819 122.608 11.7101 121.629 11.7101Z"></path>
</g>
<g class="ro">
<path d="M117.884 18.4844V17.0564H116.45V18.4844H117.884Z"></path>
<path d="M120.378 18.6213H119V11H122.67C123.434 11 124.035 11.2075 124.474 11.6224C124.913 12.03 125.132 12.5868 125.132 13.2929C125.132 13.8389 124.99 14.2938 124.706 14.6578C124.429 15.0144 124.019 15.2656 123.474 15.4112L125.315 18.6213H123.779L122.072 15.5422H120.378V18.6213ZM122.572 14.5049C122.922 14.5049 123.194 14.4248 123.389 14.2647C123.584 14.0973 123.682 13.8607 123.682 13.555V13.0309C123.682 12.7252 123.584 12.4922 123.389 12.3321C123.194 12.1647 122.922 12.081 122.572 12.081H120.378V14.5049H122.572Z"></path>
<path d="M127.334 14.85C127.334 16.83 128.406 17.6 129.548 17.6C130.689 17.6 131.761 16.7475 131.761 14.85C131.761 12.87 130.689 12.1 129.548 12.1C128.406 12.1 127.334 12.8287 127.334 14.85ZM129.548 11C131.266 11 133.095 12.1688 133.095 14.85C133.095 17.5312 131.266 18.7 129.548 18.7C127.829 18.7 126 17.5312 126 14.85C126 12.1688 127.829 11 129.548 11Z"></path>
</g>
</g>
</svg>